<svg id="svg" version="1.1" xmlns="http://www.w3.org/2000/svg" xmlns:xlink="http://www.w3.org/1999/xlink" width="400" height="400" viewBox="0, 0, 400,400"><g id="svgg"><path id="path0" d="M0.000 38.200 C 0.000 38.530,0.180 38.800,0.400 38.800 C 0.620 38.800,0.800 38.530,0.800 38.200 C 0.800 37.870,0.620 37.600,0.400 37.600 C 0.180 37.600,0.000 37.870,0.000 38.200 M399.200 38.400 C 399.200 38.840,399.380 39.200,399.600 39.200 C 399.820 39.200,400.000 38.840,400.000 38.400 C 400.000 37.960,399.820 37.600,399.600 37.600 C 399.380 37.600,399.200 37.960,399.200 38.400 M70.569 40.626 C 70.426 41.386,70.429 45.201,70.576 49.104 C 71.359 69.947,72.118 80.567,72.988 82.830 C 73.290 83.617,73.665 85.556,73.821 87.139 C 73.977 88.722,74.249 90.107,74.426 90.216 C 74.602 90.325,74.958 91.446,75.216 92.707 C 76.381 98.390,80.450 108.782,83.108 112.861 C 83.489 113.445,84.508 115.154,85.374 116.659 C 86.240 118.163,87.365 119.844,87.874 120.393 C 88.383 120.942,88.800 121.529,88.800 121.696 C 88.800 121.863,89.475 122.687,90.300 123.526 C 91.125 124.365,92.414 125.831,93.165 126.784 C 94.521 128.504,104.989 139.124,143.779 178.137 C 155.942 190.369,164.000 198.770,164.000 199.218 C 164.000 200.186,129.794 234.620,128.274 235.183 C 127.628 235.422,126.860 235.457,126.474 235.264 C 126.103 235.079,124.450 234.700,122.800 234.422 C 121.150 234.145,119.278 233.756,118.640 233.559 C 117.112 233.086,106.695 233.096,104.846 233.573 C 104.051 233.777,102.320 234.152,101.000 234.404 C 90.029 236.501,77.377 245.017,69.507 255.600 C 60.622 267.549,56.860 285.736,60.405 299.600 C 60.658 300.590,60.958 301.940,61.071 302.600 C 61.465 304.908,64.205 311.035,67.031 315.931 C 71.006 322.815,81.538 332.399,88.205 335.199 C 89.302 335.660,90.519 336.212,90.909 336.427 C 93.063 337.614,98.169 339.071,103.400 339.990 C 118.657 342.671,137.602 336.481,148.776 325.163 C 151.714 322.188,154.134 319.312,155.095 317.655 C 155.686 316.635,156.733 314.990,157.419 314.000 C 158.877 311.898,160.191 309.378,161.040 307.053 C 161.372 306.144,162.010 304.410,162.458 303.200 C 165.792 294.198,165.298 278.308,161.361 267.873 C 160.824 266.449,160.842 266.273,161.628 265.273 C 164.251 261.935,199.249 227.200,199.989 227.200 C 200.538 227.200,204.146 230.491,210.621 236.900 C 216.011 242.235,222.711 248.865,225.511 251.633 C 228.310 254.402,231.789 257.912,233.241 259.433 C 234.694 260.955,236.628 262.794,237.539 263.521 C 239.620 265.180,239.904 266.237,238.832 268.338 C 238.374 269.234,238.000 270.305,238.000 270.717 C 238.000 271.128,237.644 272.621,237.209 274.033 C 235.698 278.940,234.743 289.199,235.536 292.000 C 235.753 292.770,236.121 294.750,236.352 296.400 C 236.852 299.968,237.820 303.813,238.568 305.200 C 238.865 305.750,239.230 306.773,239.380 307.472 C 239.529 308.172,239.898 308.950,240.200 309.200 C 240.502 309.450,240.862 310.170,241.000 310.800 C 241.138 311.430,241.510 312.159,241.826 312.421 C 242.142 312.683,242.400 313.117,242.400 313.385 C 242.400 314.307,248.875 322.577,252.134 325.819 C 258.306 331.957,269.033 337.882,276.000 339.001 C 276.990 339.160,278.019 339.467,278.286 339.682 C 278.999 340.257,292.507 340.549,295.800 340.060 C 302.116 339.123,310.704 336.396,313.544 334.426 C 314.125 334.024,316.201 332.649,318.158 331.371 C 321.786 329.003,328.746 322.411,330.750 319.445 C 333.990 314.649,334.944 313.057,336.588 309.702 C 337.585 307.667,338.408 305.777,338.418 305.502 C 338.427 305.226,338.713 304.280,339.054 303.400 C 342.199 295.265,342.367 278.146,339.358 272.320 C 339.051 271.726,338.800 270.936,338.800 270.564 C 338.800 270.192,338.421 269.058,337.957 268.044 C 337.493 267.030,336.830 265.570,336.483 264.800 C 335.359 262.306,331.910 256.400,331.577 256.400 C 331.399 256.400,331.128 256.003,330.974 255.517 C 330.531 254.121,322.560 246.181,318.572 243.165 C 311.838 238.069,305.787 235.504,296.400 233.762 C 292.933 233.119,285.652 233.157,282.533 233.835 C 280.810 234.209,278.500 234.648,277.400 234.811 C 276.300 234.973,274.770 235.309,274.000 235.557 L 272.600 236.008 255.311 218.704 C 236.740 200.116,236.231 199.564,236.593 198.423 C 236.723 198.012,245.742 188.703,256.634 177.737 C 296.762 137.340,306.444 127.505,307.107 126.464 C 307.480 125.879,308.554 124.642,309.493 123.715 C 310.432 122.788,311.200 121.886,311.200 121.711 C 311.200 121.535,311.605 120.940,312.100 120.388 C 313.210 119.149,316.482 114.227,317.277 112.600 C 318.604 109.884,320.093 106.912,320.823 105.521 C 321.250 104.707,321.601 103.807,321.602 103.521 C 321.604 103.234,321.857 102.517,322.165 101.927 C 322.473 101.337,322.851 100.257,323.004 99.527 C 323.158 98.797,323.524 97.660,323.816 97.000 C 324.491 95.475,325.487 91.694,326.027 88.600 C 326.258 87.280,326.641 85.660,326.880 85.000 C 327.119 84.340,327.567 81.820,327.877 79.400 C 328.186 76.980,328.622 73.650,328.844 72.000 C 329.354 68.222,329.768 40.628,329.327 39.844 C 329.080 39.404,326.024 42.173,316.871 51.131 C 306.320 61.455,250.295 117.117,247.000 120.548 C 246.340 121.235,244.990 122.579,244.000 123.535 C 243.010 124.491,232.917 134.549,221.571 145.886 C 204.552 162.891,200.801 166.454,200.135 166.243 C 199.691 166.102,190.254 156.871,179.164 145.731 C 168.074 134.590,156.124 122.668,152.609 119.237 C 146.820 113.587,137.383 104.247,89.000 56.280 C 80.640 47.992,73.131 40.768,72.314 40.227 L 70.828 39.243 70.569 40.626 M119.600 264.483 C 122.147 265.262,124.605 266.484,125.400 267.367 C 125.620 267.611,126.294 268.127,126.897 268.513 C 136.704 274.786,138.446 291.769,130.334 302.020 C 126.286 307.135,123.449 308.830,115.600 310.825 C 113.398 311.385,108.925 311.263,107.338 310.600 C 106.549 310.270,105.447 310.000,104.890 310.000 C 101.500 310.000,95.104 305.312,91.857 300.447 C 89.488 296.898,89.251 296.389,88.517 293.279 C 84.030 274.276,100.805 258.736,119.600 264.483 M293.350 263.613 C 299.555 264.510,305.854 269.049,310.107 275.690 C 315.195 283.634,313.033 296.462,305.252 304.500 C 304.027 305.765,302.794 306.800,302.513 306.800 C 302.231 306.800,302.000 306.944,302.000 307.120 C 302.000 308.167,294.640 310.702,290.600 311.047 C 284.946 311.531,277.807 309.279,274.000 305.812 C 273.010 304.910,271.835 303.908,271.389 303.586 C 267.191 300.554,264.114 290.833,265.130 283.809 C 267.116 270.073,279.034 261.544,293.350 263.613 M0.000 361.200 C 0.000 361.860,0.180 362.400,0.400 362.400 C 0.620 362.400,0.800 361.860,0.800 361.200 C 0.800 360.540,0.620 360.000,0.400 360.000 C 0.180 360.000,0.000 360.540,0.000 361.200 M365.600 398.000 C 365.112 398.315,365.164 398.389,365.876 398.394 C 366.358 398.397,366.864 398.220,367.000 398.000 C 367.315 397.491,366.388 397.491,365.600 398.000 M37.600 399.600 C 37.600 399.820,37.870 400.000,38.200 400.000 C 38.530 400.000,38.800 399.820,38.800 399.600 C 38.800 399.380,38.530 399.200,38.200 399.200 C 37.870 399.200,37.600 399.380,37.600 399.600 " stroke="none" fill="#f9f8f8" fill-rule="evenodd"></path><path id="path1" d="M37.600 0.400 C 37.600 0.625,36.475 0.800,35.024 0.800 C 33.607 0.800,32.336 0.980,32.200 1.200 C 32.064 1.420,32.244 1.600,32.600 1.600 C 32.956 1.600,33.136 1.780,33.000 2.000 C 32.864 2.220,31.942 2.400,30.950 2.400 C 28.937 2.400,27.600 2.949,27.600 3.777 C 27.600 4.117,27.314 4.250,26.845 4.128 C 26.430 4.019,25.952 4.154,25.783 4.427 C 25.585 4.747,25.641 4.822,25.938 4.638 C 26.192 4.481,26.400 4.533,26.400 4.753 C 26.400 5.369,25.604 5.722,24.298 5.685 C 23.444 5.660,23.055 5.868,22.909 6.425 C 22.796 6.858,22.362 7.200,21.926 7.200 C 21.337 7.200,21.206 7.389,21.392 7.974 C 21.601 8.633,21.448 8.742,20.359 8.711 C 18.926 8.670,17.861 9.731,18.214 10.845 C 18.477 11.671,17.965 12.073,17.230 11.618 C 16.917 11.425,16.825 11.065,17.008 10.745 C 17.178 10.445,16.924 10.605,16.443 11.100 C 15.962 11.595,15.396 12.000,15.184 12.000 C 14.973 12.000,14.800 12.172,14.800 12.382 C 14.800 12.854,12.889 14.800,12.425 14.800 C 11.885 14.800,11.579 15.977,11.844 17.032 C 12.052 17.863,11.381 18.392,10.700 17.932 C 10.142 17.555,8.800 19.025,8.800 20.014 C 8.800 20.933,8.620 21.200,8.000 21.200 C 7.503 21.200,7.200 21.467,7.200 21.904 C 7.200 22.291,6.830 22.838,6.378 23.121 C 5.822 23.468,5.635 23.881,5.800 24.401 C 5.967 24.925,5.721 25.448,5.022 26.056 C 4.444 26.558,4.000 27.372,4.000 27.928 C 4.000 28.469,3.692 29.137,3.315 29.413 C 2.938 29.688,2.611 30.358,2.587 30.902 C 2.563 31.446,2.151 32.390,1.672 33.000 C 0.724 34.205,0.514 35.600,1.280 35.600 C 1.653 35.600,1.653 35.707,1.280 36.080 C 1.016 36.344,0.800 37.334,0.800 38.280 C 0.800 39.226,0.620 40.000,0.400 40.000 C -0.193 40.000,-0.099 43.887,0.500 44.167 C 0.900 44.353,0.900 44.447,0.500 44.633 C -0.236 44.977,-0.236 355.038,0.500 355.335 C 0.900 355.496,0.900 355.543,0.500 355.568 C -0.131 355.608,-0.187 359.071,0.440 359.280 C 0.707 359.369,0.894 360.681,0.915 362.613 C 0.934 364.366,1.018 365.395,1.102 364.900 C 1.412 363.082,2.314 363.899,2.465 366.133 C 2.530 367.095,2.795 367.671,3.238 367.812 C 3.956 368.040,4.513 369.883,3.966 370.221 C 3.787 370.332,3.451 370.069,3.220 369.637 C 2.674 368.617,2.688 368.283,3.262 368.638 C 3.548 368.815,3.615 368.748,3.438 368.462 C 3.000 367.753,2.400 367.913,2.400 368.738 C 2.400 369.466,3.989 371.264,4.012 370.562 C 4.019 370.363,4.210 370.519,4.437 370.908 C 4.664 371.298,5.018 371.512,5.225 371.385 C 5.441 371.251,5.600 372.093,5.600 373.376 C 5.600 374.599,5.780 375.600,6.000 375.600 C 6.220 375.600,6.400 375.384,6.400 375.120 C 6.400 374.219,7.222 375.425,7.432 376.635 C 7.543 377.276,7.897 378.000,8.217 378.244 C 8.538 378.488,8.800 379.073,8.800 379.544 C 8.800 380.038,9.054 380.400,9.400 380.400 C 9.730 380.400,10.000 380.560,10.000 380.757 C 10.000 380.953,10.450 381.226,11.000 381.364 C 11.550 381.502,12.000 381.882,12.000 382.208 C 12.000 382.996,11.607 382.956,10.957 382.100 C 10.665 381.715,10.420 381.595,10.413 381.833 C 10.388 382.686,17.528 389.645,18.479 389.694 C 19.788 389.762,20.605 390.423,19.919 390.859 C 19.548 391.094,19.628 391.189,20.204 391.194 C 20.646 391.197,21.232 391.560,21.507 392.000 C 21.818 392.498,22.440 392.800,23.154 392.800 C 24.445 392.800,25.594 393.778,24.717 394.130 C 24.408 394.253,24.505 394.350,24.956 394.368 C 25.372 394.386,25.925 394.691,26.185 395.047 C 26.445 395.403,27.122 395.745,27.690 395.808 C 28.257 395.870,29.099 396.299,29.560 396.760 C 30.187 397.387,30.902 397.600,32.376 397.600 C 33.463 397.600,34.464 397.780,34.600 398.000 C 34.736 398.220,34.556 398.400,34.200 398.400 C 33.844 398.400,33.664 398.580,33.800 398.800 C 34.187 399.426,35.257 399.270,35.862 398.500 C 36.283 397.964,36.387 397.940,36.306 398.400 C 36.226 398.851,36.672 399.030,38.100 399.122 C 39.145 399.189,40.000 399.414,40.000 399.622 C 40.000 399.859,99.709 400.000,199.800 400.000 C 306.067 400.000,359.600 399.866,359.600 399.600 C 359.600 399.380,359.960 399.200,360.400 399.200 C 360.840 399.200,361.203 399.425,361.206 399.700 C 361.211 400.078,361.294 400.071,361.547 399.672 C 361.731 399.381,362.728 399.087,363.763 399.017 C 364.797 398.947,365.769 398.754,365.922 398.589 C 366.075 398.423,365.660 398.415,365.000 398.570 C 363.910 398.827,363.857 398.795,364.420 398.221 C 364.812 397.821,365.805 397.572,367.128 397.542 C 368.278 397.516,369.302 397.359,369.405 397.193 C 369.507 397.026,369.298 396.915,368.939 396.945 C 368.580 396.975,368.207 396.775,368.110 396.500 C 367.945 396.034,369.673 395.778,371.665 395.973 C 372.030 396.009,372.433 395.870,372.560 395.664 C 372.687 395.459,372.568 395.315,372.296 395.345 C 372.023 395.375,371.710 395.220,371.600 395.000 C 371.485 394.770,372.334 394.500,373.600 394.365 C 374.810 394.236,375.581 394.101,375.313 394.065 C 374.307 393.931,375.321 392.800,376.447 392.800 C 377.113 392.800,377.900 392.459,378.293 392.000 C 378.670 391.560,379.343 391.186,379.789 391.168 C 380.235 391.151,380.394 391.052,380.142 390.949 C 379.149 390.542,380.484 388.323,381.594 388.535 C 383.104 388.824,388.602 384.410,387.726 383.614 C 387.596 383.496,387.410 383.625,387.312 383.900 C 387.012 384.741,386.528 384.456,386.634 383.500 C 386.688 383.005,386.748 382.465,386.767 382.300 C 386.785 382.135,387.124 382.000,387.520 382.000 C 387.916 382.000,388.456 381.784,388.720 381.520 C 389.093 381.147,389.206 381.169,389.225 381.620 C 389.239 381.939,389.413 381.795,389.612 381.300 C 389.811 380.805,390.250 380.400,390.587 380.400 C 390.924 380.400,391.200 380.080,391.200 379.689 C 391.200 379.298,391.560 378.670,392.000 378.293 C 392.440 377.916,392.800 377.156,392.800 376.604 C 392.800 375.867,393.013 375.600,393.600 375.600 C 394.280 375.600,394.400 375.333,394.400 373.824 C 394.400 372.847,394.580 371.936,394.800 371.800 C 395.020 371.664,395.200 371.844,395.200 372.200 C 395.200 372.556,395.380 372.736,395.600 372.600 C 395.820 372.464,396.000 371.941,396.000 371.438 C 396.000 370.935,396.360 370.198,396.800 369.800 C 397.240 369.402,397.600 368.782,397.600 368.423 C 397.600 368.063,397.960 367.063,398.400 366.200 C 398.967 365.087,399.200 363.841,399.200 361.915 C 399.200 360.372,399.373 359.200,399.600 359.200 C 400.183 359.200,400.091 356.109,399.500 355.833 C 399.100 355.647,399.100 355.553,399.500 355.367 C 400.146 355.065,400.245 40.400,399.600 40.400 C 399.380 40.400,399.200 39.511,399.200 38.424 C 399.200 37.337,398.992 36.319,398.738 36.162 C 398.425 35.968,398.385 36.057,398.615 36.438 C 398.880 36.878,398.792 36.869,398.211 36.400 C 397.495 35.822,397.499 35.795,398.334 35.672 C 399.232 35.540,399.550 34.263,398.800 33.800 C 398.580 33.664,398.400 33.869,398.400 34.256 C 398.400 36.072,397.631 33.948,397.522 31.832 C 397.436 30.160,397.224 29.405,396.800 29.267 C 396.280 29.096,396.275 29.161,396.763 29.752 C 397.180 30.257,397.209 30.551,396.876 30.884 C 396.292 31.468,396.059 30.828,395.912 28.231 C 395.836 26.900,395.606 26.204,395.200 26.081 C 394.716 25.935,394.696 26.002,395.100 26.430 C 395.758 27.127,395.732 27.467,395.022 27.467 C 394.704 27.467,394.456 27.362,394.470 27.233 C 394.648 25.573,394.274 23.885,393.600 23.307 C 393.160 22.930,392.800 22.302,392.800 21.911 C 392.800 21.520,392.538 21.200,392.218 21.200 C 391.534 21.200,389.447 19.220,389.780 18.887 C 389.905 18.761,390.271 19.005,390.591 19.429 C 390.963 19.920,391.179 20.007,391.187 19.669 C 391.194 19.376,390.480 18.424,389.600 17.553 C 388.720 16.682,388.000 15.706,388.000 15.385 C 388.000 15.063,387.828 14.800,387.618 14.800 C 387.126 14.800,385.200 12.880,385.200 12.389 C 385.200 12.184,384.750 11.902,384.200 11.764 C 383.650 11.626,383.200 11.275,383.200 10.983 C 383.200 10.653,382.746 10.466,381.994 10.488 C 380.742 10.523,380.079 10.187,380.524 9.743 C 380.665 9.602,381.055 9.714,381.390 9.992 C 382.575 10.975,381.981 9.967,380.566 8.593 C 379.777 7.827,378.740 7.200,378.262 7.200 C 377.784 7.200,377.168 6.840,376.893 6.400 C 376.553 5.856,375.960 5.600,375.039 5.600 C 374.163 5.600,373.598 5.373,373.438 4.955 C 373.259 4.487,373.362 4.377,373.816 4.551 C 374.198 4.697,374.340 4.626,374.180 4.368 C 374.037 4.136,373.352 3.976,372.660 4.013 C 370.743 4.116,370.506 4.052,370.238 3.355 C 370.059 2.887,370.162 2.777,370.616 2.951 C 370.967 3.085,371.137 3.022,371.004 2.806 C 370.873 2.594,370.188 2.439,369.483 2.462 C 367.282 2.532,367.052 2.460,367.548 1.863 C 368.172 1.111,367.710 0.800,365.967 0.800 C 365.141 0.800,364.376 0.575,364.265 0.300 C 364.104 -0.100,364.057 -0.100,364.032 0.300 C 364.014 0.575,363.730 0.800,363.400 0.800 C 363.070 0.800,362.797 0.575,362.794 0.300 C 362.790 -0.033,362.658 0.000,362.400 0.400 C 362.142 0.800,362.010 0.833,362.006 0.500 C 362.001 0.101,329.290 0.000,199.800 0.000 C 91.933 0.000,37.600 0.134,37.600 0.400 M24.267 6.533 C 24.267 6.827,24.027 7.067,23.733 7.067 C 23.159 7.067,23.036 6.697,23.467 6.267 C 23.897 5.836,24.267 5.959,24.267 6.533 M19.600 9.976 C 19.600 10.448,18.820 10.953,18.533 10.667 C 18.247 10.380,18.752 9.600,19.224 9.600 C 19.431 9.600,19.600 9.769,19.600 9.976 M1.830 34.479 C 1.100 35.521,0.977 34.764,1.667 33.475 C 1.949 32.948,2.199 32.796,2.297 33.091 C 2.387 33.360,2.176 33.984,1.830 34.479 M72.000 38.055 C 72.000 38.259,72.315 38.539,72.700 38.678 C 73.085 38.816,73.670 39.167,74.000 39.457 C 76.269 41.449,143.022 107.633,173.698 138.305 L 200.396 165.000 221.164 144.200 C 232.586 132.760,242.209 123.130,242.549 122.800 C 242.888 122.470,244.282 120.985,245.646 119.500 C 247.011 118.015,248.256 116.800,248.413 116.800 C 248.571 116.800,250.657 114.809,253.050 112.375 C 258.295 107.040,254.858 110.479,284.709 80.700 C 298.326 67.115,309.666 56.000,309.907 56.000 C 310.149 56.000,310.460 55.640,310.600 55.200 C 310.740 54.760,311.024 54.400,311.233 54.400 C 311.441 54.400,315.482 50.535,320.212 45.811 C 332.020 34.018,331.326 33.482,331.064 54.200 C 330.905 66.867,330.584 72.228,329.629 78.200 C 328.296 86.543,327.907 88.632,327.620 88.994 C 327.443 89.217,327.178 90.402,327.030 91.627 C 326.882 92.852,326.506 94.345,326.195 94.944 C 325.884 95.543,325.513 96.701,325.370 97.517 C 325.227 98.333,324.874 99.379,324.584 99.842 C 324.295 100.304,323.929 101.372,323.771 102.214 C 323.460 103.870,318.953 113.193,317.203 115.800 C 316.612 116.680,315.626 118.165,315.010 119.100 C 314.395 120.035,313.765 120.800,313.610 120.800 C 313.455 120.800,313.104 121.295,312.829 121.900 C 311.904 123.938,308.946 127.001,265.260 171.143 C 250.377 186.182,238.149 198.619,238.087 198.781 C 238.025 198.943,245.793 206.934,255.350 216.538 C 274.197 235.479,272.961 234.503,276.694 233.394 C 283.571 231.352,296.331 231.328,302.000 233.347 C 302.990 233.700,304.140 233.991,304.556 233.994 C 305.242 233.999,308.096 235.162,309.600 236.048 C 309.930 236.243,310.650 236.581,311.200 236.801 C 311.750 237.020,312.470 237.381,312.800 237.603 C 313.130 237.824,313.850 238.224,314.400 238.490 C 317.698 240.087,331.589 252.399,331.598 253.733 C 331.599 253.916,332.195 254.816,332.922 255.733 C 333.649 256.650,334.468 257.850,334.741 258.400 C 335.015 258.950,335.676 260.120,336.210 261.000 C 336.744 261.880,337.375 263.050,337.611 263.600 C 337.848 264.150,338.392 265.332,338.821 266.226 C 339.249 267.121,339.606 268.111,339.613 268.426 C 339.620 268.742,339.890 269.349,340.213 269.776 C 340.536 270.204,340.800 270.929,340.800 271.389 C 340.800 271.849,341.086 273.210,341.436 274.413 C 344.562 285.168,342.846 300.900,337.419 311.248 C 334.792 316.257,332.786 319.600,332.407 319.600 C 332.213 319.600,331.943 319.951,331.806 320.380 C 331.232 322.190,323.240 330.034,319.400 332.556 C 312.773 336.910,311.786 337.454,309.869 337.814 C 309.077 337.962,308.227 338.326,307.982 338.622 C 307.736 338.918,306.694 339.286,305.667 339.439 C 304.640 339.592,303.440 339.951,303.000 340.236 C 302.560 340.521,300.760 340.878,299.000 341.030 C 297.240 341.182,295.548 341.507,295.239 341.753 C 294.299 342.502,284.241 342.596,282.263 341.873 C 281.348 341.539,279.340 341.142,277.800 340.991 C 276.260 340.840,274.550 340.489,274.000 340.211 C 273.450 339.934,272.280 339.576,271.400 339.417 C 270.520 339.257,269.350 338.874,268.800 338.566 C 268.250 338.258,267.350 337.825,266.800 337.604 C 266.250 337.383,265.530 337.041,265.200 336.844 C 264.870 336.647,264.150 336.288,263.600 336.046 C 262.478 335.552,262.282 335.434,257.766 332.522 C 254.385 330.342,244.800 320.926,244.800 319.785 C 244.800 319.463,244.649 319.200,244.465 319.200 C 243.162 319.200,236.958 306.684,235.940 302.000 C 235.725 301.010,235.265 299.210,234.919 298.000 C 234.126 295.231,233.753 284.023,234.333 280.400 C 234.995 276.264,236.573 269.951,237.588 267.378 C 238.001 266.329,237.346 265.089,235.754 263.910 C 233.926 262.555,230.806 259.502,230.759 259.021 C 230.736 258.789,228.441 256.400,225.659 253.710 C 222.876 251.021,216.147 244.454,210.704 239.117 C 205.261 233.780,200.531 229.316,200.193 229.198 C 199.619 228.996,164.050 264.096,163.090 265.810 C 162.654 266.589,162.999 268.724,163.812 270.283 C 164.133 270.897,164.397 271.940,164.400 272.600 C 164.403 273.260,164.712 274.340,165.088 275.000 C 166.119 276.812,166.123 296.946,165.092 299.550 C 164.712 300.513,164.394 301.683,164.386 302.150 C 164.379 302.618,164.025 303.720,163.600 304.600 C 163.175 305.480,162.821 306.433,162.814 306.717 C 162.794 307.453,160.645 311.942,159.518 313.600 C 158.995 314.370,157.982 316.025,157.266 317.278 C 156.128 319.273,154.851 320.856,150.356 325.842 C 148.618 327.770,144.763 330.912,141.800 332.817 C 137.879 335.337,137.526 335.548,136.400 336.060 C 135.850 336.310,134.184 337.116,132.698 337.853 C 131.212 338.589,129.232 339.308,128.298 339.451 C 127.364 339.594,126.139 339.943,125.575 340.227 C 125.011 340.511,123.391 340.861,121.975 341.004 C 120.559 341.147,118.721 341.520,117.892 341.832 C 115.870 342.593,106.886 342.614,105.085 341.861 C 104.376 341.565,102.447 341.192,100.798 341.033 C 99.149 340.874,97.440 340.515,97.000 340.235 C 96.560 339.956,95.510 339.617,94.667 339.483 C 93.824 339.349,92.339 338.871,91.367 338.420 C 90.395 337.969,88.823 337.240,87.874 336.800 C 86.924 336.360,86.042 336.000,85.912 336.000 C 83.294 336.000,66.800 320.650,66.800 318.213 C 66.800 318.091,66.176 317.104,65.413 316.019 C 64.651 314.934,63.913 313.593,63.774 313.040 C 63.635 312.486,63.269 311.823,62.961 311.567 C 62.652 311.311,62.394 310.899,62.387 310.651 C 62.381 310.403,61.932 309.300,61.391 308.200 C 60.850 307.100,60.406 305.831,60.404 305.380 C 60.402 304.929,60.242 304.389,60.048 304.180 C 59.855 303.971,59.396 302.180,59.028 300.200 C 58.661 298.220,58.189 295.736,57.980 294.680 C 57.497 292.238,57.487 284.234,57.965 281.720 C 58.165 280.664,58.545 278.450,58.810 276.800 C 59.297 273.757,60.438 269.584,61.379 267.400 C 62.327 265.199,62.791 264.205,63.154 263.600 C 63.352 263.270,63.716 262.550,63.962 262.000 C 64.207 261.450,64.767 260.460,65.205 259.800 C 65.643 259.140,66.261 258.046,66.578 257.368 C 66.895 256.691,67.434 255.904,67.777 255.619 C 68.120 255.335,68.400 254.914,68.400 254.685 C 68.400 254.343,70.224 252.216,73.717 248.484 C 75.216 246.882,80.860 242.012,82.400 240.992 C 83.390 240.337,84.426 239.587,84.702 239.326 C 84.979 239.066,85.609 238.726,86.102 238.572 C 86.596 238.418,87.090 238.168,87.200 238.017 C 87.814 237.172,94.046 234.659,99.000 233.259 C 106.039 231.269,118.534 231.259,124.502 233.237 C 125.767 233.657,127.091 234.000,127.442 234.000 C 128.056 234.000,162.200 199.808,162.200 199.193 C 162.200 199.028,149.870 186.435,134.800 171.208 C 89.764 125.703,88.486 124.384,87.295 122.170 C 87.018 121.654,86.319 120.729,85.742 120.116 C 85.166 119.502,84.441 118.460,84.132 117.800 C 83.823 117.140,83.049 115.790,82.412 114.800 C 80.440 111.736,78.137 107.057,77.851 105.533 C 77.701 104.734,77.332 103.876,77.031 103.626 C 76.730 103.376,76.359 102.509,76.208 101.700 C 76.056 100.890,75.692 99.765,75.400 99.200 C 75.108 98.635,74.747 97.459,74.599 96.586 C 74.451 95.714,74.091 94.460,73.799 93.800 C 73.508 93.140,73.146 91.700,72.994 90.600 C 72.843 89.500,72.473 87.843,72.171 86.918 C 71.869 85.993,71.503 83.743,71.357 81.918 C 71.211 80.093,70.958 78.420,70.795 78.200 C 70.038 77.182,68.374 41.354,68.973 38.965 C 69.307 37.633,72.000 36.824,72.000 38.055 M106.400 265.477 C 100.761 266.801,94.453 271.291,92.619 275.286 C 92.288 276.009,91.853 276.870,91.655 277.200 C 89.420 280.911,88.459 290.633,90.074 293.200 C 90.420 293.750,90.804 294.756,90.929 295.436 C 91.694 299.625,97.617 305.593,103.400 308.001 C 106.473 309.280,117.399 309.519,119.200 308.346 C 119.750 307.988,120.689 307.582,121.286 307.443 C 123.709 306.882,129.458 301.746,130.937 298.820 C 131.221 298.259,131.651 297.440,131.892 297.000 C 135.539 290.358,134.253 276.793,129.700 273.880 C 129.425 273.704,129.200 273.385,129.200 273.170 C 129.200 272.956,128.361 272.020,127.335 271.090 C 126.310 270.161,125.183 269.128,124.832 268.797 C 121.514 265.663,112.514 264.042,106.400 265.477 M283.200 265.402 C 271.332 268.654,264.046 280.474,266.849 291.929 C 267.622 295.087,268.347 296.781,270.264 299.913 C 271.610 302.111,275.807 305.582,279.183 307.289 L 282.565 309.000 288.583 309.000 C 294.963 309.000,295.840 308.805,300.600 306.326 C 302.481 305.347,306.946 300.780,307.625 299.141 C 307.884 298.513,308.255 298.000,308.449 298.000 C 308.642 298.000,308.800 297.768,308.800 297.485 C 308.800 297.201,309.192 296.256,309.672 295.385 C 311.064 292.854,311.024 282.028,309.610 278.600 C 308.280 275.377,304.933 271.223,301.504 268.537 C 297.584 265.467,288.588 263.926,283.200 265.402 M27.630 394.910 C 27.581 395.388,27.032 395.296,26.860 394.780 C 26.772 394.516,26.916 394.372,27.180 394.460 C 27.444 394.548,27.647 394.750,27.630 394.910 " stroke="none" fill="#040404" fill-rule="evenodd"></path><path id="path2" d="M23.900 6.032 C 23.042 6.532,22.990 7.067,23.800 7.067 C 24.130 7.067,24.312 6.978,24.203 6.870 C 24.095 6.762,24.207 6.432,24.452 6.137 C 24.979 5.503,24.850 5.478,23.900 6.032 M18.596 10.407 C 18.458 10.630,18.198 10.722,18.018 10.611 C 17.838 10.500,17.486 10.656,17.235 10.958 C 16.388 11.979,17.780 11.978,18.763 10.957 C 19.269 10.431,19.496 10.000,19.266 10.000 C 19.035 10.000,18.734 10.183,18.596 10.407 M394.533 26.922 C 394.533 27.222,394.778 27.467,395.078 27.467 C 395.377 27.467,395.561 27.283,395.486 27.058 C 395.274 26.421,394.533 26.315,394.533 26.922 M396.000 30.127 C 396.000 30.874,396.652 31.362,396.968 30.852 C 397.091 30.653,396.923 30.268,396.596 29.996 C 396.111 29.594,396.000 29.619,396.000 30.127 M397.996 36.196 C 398.496 36.798,399.200 36.669,399.200 35.976 C 399.200 35.769,398.818 35.600,398.351 35.600 C 397.645 35.600,397.585 35.700,397.996 36.196 M70.091 37.720 C 69.592 37.946,69.088 38.506,68.973 38.965 C 68.374 41.354,70.038 77.182,70.795 78.200 C 70.958 78.420,71.211 80.093,71.357 81.918 C 71.503 83.743,71.869 85.993,72.171 86.918 C 72.473 87.843,72.843 89.500,72.994 90.600 C 73.146 91.700,73.508 93.140,73.799 93.800 C 74.091 94.460,74.451 95.714,74.599 96.586 C 74.747 97.459,75.108 98.635,75.400 99.200 C 75.692 99.765,76.056 100.890,76.208 101.700 C 76.359 102.509,76.730 103.376,77.031 103.626 C 77.332 103.876,77.701 104.734,77.851 105.533 C 78.137 107.057,80.440 111.736,82.412 114.800 C 83.049 115.790,83.823 117.140,84.132 117.800 C 84.441 118.460,85.166 119.502,85.742 120.116 C 86.319 120.729,87.018 121.654,87.295 122.170 C 88.486 124.384,89.764 125.703,134.800 171.208 C 149.870 186.435,162.200 199.028,162.200 199.193 C 162.200 199.808,128.056 234.000,127.442 234.000 C 127.091 234.000,125.767 233.657,124.502 233.237 C 118.534 231.259,106.039 231.269,99.000 233.259 C 94.046 234.659,87.814 237.172,87.200 238.017 C 87.090 238.168,86.596 238.418,86.102 238.572 C 85.609 238.726,84.979 239.066,84.702 239.326 C 84.426 239.587,83.390 240.337,82.400 240.992 C 80.860 242.012,75.216 246.882,73.717 248.484 C 70.224 252.216,68.400 254.343,68.400 254.685 C 68.400 254.914,68.120 255.335,67.777 255.619 C 67.434 255.904,66.895 256.691,66.578 257.368 C 66.261 258.046,65.643 259.140,65.205 259.800 C 64.767 260.460,64.207 261.450,63.962 262.000 C 63.716 262.550,63.352 263.270,63.154 263.600 C 62.791 264.205,62.327 265.199,61.379 267.400 C 60.438 269.584,59.297 273.757,58.810 276.800 C 58.545 278.450,58.165 280.664,57.965 281.720 C 57.487 284.234,57.497 292.238,57.980 294.680 C 58.189 295.736,58.661 298.220,59.028 300.200 C 59.396 302.180,59.855 303.971,60.048 304.180 C 60.242 304.389,60.402 304.929,60.404 305.380 C 60.406 305.831,60.850 307.100,61.391 308.200 C 61.932 309.300,62.381 310.403,62.387 310.651 C 62.394 310.899,62.652 311.311,62.961 311.567 C 63.269 311.823,63.635 312.486,63.774 313.040 C 63.913 313.593,64.651 314.934,65.413 316.019 C 66.176 317.104,66.800 318.091,66.800 318.213 C 66.800 320.650,83.294 336.000,85.912 336.000 C 86.042 336.000,86.924 336.360,87.874 336.800 C 88.823 337.240,90.395 337.969,91.367 338.420 C 92.339 338.871,93.824 339.349,94.667 339.483 C 95.510 339.617,96.560 339.956,97.000 340.235 C 97.440 340.515,99.149 340.874,100.798 341.033 C 102.447 341.192,104.376 341.565,105.085 341.861 C 106.886 342.614,115.870 342.593,117.892 341.832 C 118.721 341.520,120.559 341.147,121.975 341.004 C 123.391 340.861,125.011 340.511,125.575 340.227 C 126.139 339.943,127.364 339.594,128.298 339.451 C 129.232 339.308,131.212 338.589,132.698 337.853 C 134.184 337.116,135.850 336.310,136.400 336.060 C 137.526 335.548,137.879 335.337,141.800 332.817 C 144.763 330.912,148.618 327.770,150.356 325.842 C 154.851 320.856,156.128 319.273,157.266 317.278 C 157.982 316.025,158.995 314.370,159.518 313.600 C 160.645 311.942,162.794 307.453,162.814 306.717 C 162.821 306.433,163.175 305.480,163.600 304.600 C 164.025 303.720,164.379 302.618,164.386 302.150 C 164.394 301.683,164.712 300.513,165.092 299.550 C 166.123 296.946,166.119 276.812,165.088 275.000 C 164.712 274.340,164.403 273.260,164.400 272.600 C 164.397 271.940,164.133 270.897,163.812 270.283 C 162.999 268.724,162.654 266.589,163.090 265.810 C 164.050 264.096,199.619 228.996,200.193 229.198 C 200.531 229.316,205.261 233.780,210.704 239.117 C 216.147 244.454,222.876 251.021,225.659 253.710 C 228.441 256.400,230.736 258.789,230.759 259.021 C 230.806 259.502,233.926 262.555,235.754 263.910 C 237.346 265.089,238.001 266.329,237.588 267.378 C 236.573 269.951,234.995 276.264,234.333 280.400 C 233.753 284.023,234.126 295.231,234.919 298.000 C 235.265 299.210,235.725 301.010,235.940 302.000 C 236.958 306.684,243.162 319.200,244.465 319.200 C 244.649 319.200,244.800 319.463,244.800 319.785 C 244.800 320.926,254.385 330.342,257.766 332.522 C 262.282 335.434,262.478 335.552,263.600 336.046 C 264.150 336.288,264.870 336.647,265.200 336.844 C 265.530 337.041,266.250 337.383,266.800 337.604 C 267.350 337.825,268.250 338.258,268.800 338.566 C 269.350 338.874,270.520 339.257,271.400 339.417 C 272.280 339.576,273.450 339.934,274.000 340.211 C 274.550 340.489,276.260 340.840,277.800 340.991 C 279.340 341.142,281.348 341.539,282.263 341.873 C 284.241 342.596,294.299 342.502,295.239 341.753 C 295.548 341.507,297.240 341.182,299.000 341.030 C 300.760 340.878,302.560 340.521,303.000 340.236 C 303.440 339.951,304.640 339.592,305.667 339.439 C 306.694 339.286,307.736 338.918,307.982 338.622 C 308.227 338.326,309.077 337.962,309.869 337.814 C 311.786 337.454,312.773 336.910,319.400 332.556 C 323.240 330.034,331.232 322.190,331.806 320.380 C 331.943 319.951,332.213 319.600,332.407 319.600 C 332.786 319.600,334.792 316.257,337.419 311.248 C 341.033 304.357,342.930 296.358,342.931 288.000 C 342.931 283.524,342.229 277.143,341.436 274.413 C 341.086 273.210,340.800 271.849,340.800 271.389 C 340.800 270.929,340.536 270.204,340.213 269.776 C 339.890 269.349,339.620 268.742,339.613 268.426 C 339.606 268.111,339.249 267.121,338.821 266.226 C 338.392 265.332,337.848 264.150,337.611 263.600 C 337.375 263.050,336.744 261.880,336.210 261.000 C 335.676 260.120,335.015 258.950,334.741 258.400 C 334.468 257.850,333.649 256.650,332.922 255.733 C 332.195 254.816,331.599 253.916,331.598 253.733 C 331.589 252.399,317.698 240.087,314.400 238.490 C 313.850 238.224,313.130 237.824,312.800 237.603 C 312.470 237.381,311.750 237.020,311.200 236.801 C 310.650 236.581,309.930 236.243,309.600 236.048 C 308.096 235.162,305.242 233.999,304.556 233.994 C 304.140 233.991,302.990 233.700,302.000 233.347 C 296.331 231.328,283.571 231.352,276.694 233.394 C 272.961 234.503,274.197 235.479,255.350 216.538 C 245.793 206.934,238.025 198.943,238.087 198.781 C 238.149 198.619,250.377 186.182,265.260 171.143 C 308.946 127.001,311.904 123.938,312.829 121.900 C 313.104 121.295,313.455 120.800,313.610 120.800 C 313.765 120.800,314.395 120.035,315.010 119.100 C 315.626 118.165,316.612 116.680,317.203 115.800 C 318.953 113.193,323.460 103.870,323.771 102.214 C 323.929 101.372,324.295 100.304,324.584 99.842 C 324.874 99.379,325.227 98.333,325.370 97.517 C 325.513 96.701,325.884 95.543,326.195 94.944 C 326.506 94.345,326.882 92.852,327.030 91.627 C 327.178 90.402,327.443 89.217,327.620 88.994 C 327.907 88.632,328.296 86.543,329.629 78.200 C 330.584 72.228,330.905 66.867,331.064 54.200 C 331.326 33.482,332.020 34.018,320.212 45.811 C 315.482 50.535,311.441 54.400,311.233 54.400 C 311.024 54.400,310.740 54.760,310.600 55.200 C 310.460 55.640,310.149 56.000,309.907 56.000 C 309.666 56.000,298.326 67.115,284.709 80.700 C 254.858 110.479,258.295 107.040,253.050 112.375 C 250.657 114.809,248.571 116.800,248.413 116.800 C 248.256 116.800,247.011 118.015,245.646 119.500 C 244.282 120.985,242.888 122.470,242.549 122.800 C 242.209 123.130,232.586 132.760,221.164 144.200 L 200.396 165.000 173.698 138.305 C 143.022 107.633,76.269 41.449,74.000 39.457 C 73.670 39.167,73.085 38.816,72.700 38.678 C 72.315 38.539,72.000 38.259,72.000 38.055 C 72.000 37.448,71.061 37.283,70.091 37.720 M89.400 55.522 C 118.198 83.925,147.070 112.568,173.693 139.149 L 200.387 165.800 221.060 145.200 C 232.430 133.870,242.558 123.716,243.566 122.636 C 244.575 121.555,246.204 119.935,247.187 119.036 C 248.170 118.136,261.400 104.977,276.587 89.794 C 291.774 74.611,309.817 56.740,316.682 50.080 L 329.164 37.972 329.805 38.952 C 331.669 41.796,330.006 74.270,327.335 87.200 C 322.444 110.872,318.589 116.566,283.594 151.800 C 243.442 192.226,237.941 197.807,237.559 198.500 C 236.867 199.751,272.193 234.942,273.800 234.603 C 274.460 234.464,275.810 234.198,276.800 234.012 C 277.790 233.827,280.130 233.388,282.000 233.038 C 287.384 232.030,297.628 232.372,300.095 233.642 C 300.477 233.839,301.157 234.000,301.607 234.000 C 308.182 234.000,325.814 246.277,331.800 255.023 C 336.358 261.682,339.534 268.571,341.011 275.000 C 344.600 290.626,341.537 305.144,331.547 319.850 C 322.967 332.481,304.868 341.600,288.378 341.600 C 265.439 341.600,243.519 325.141,236.850 302.911 C 234.001 293.414,233.956 280.117,236.745 272.200 C 236.977 271.540,237.419 270.190,237.726 269.200 C 238.034 268.210,238.417 267.094,238.578 266.719 C 238.794 266.217,238.376 265.588,236.982 264.319 C 235.943 263.374,233.992 261.442,232.646 260.027 C 231.301 258.611,227.897 255.191,225.082 252.427 C 222.267 249.662,215.653 243.125,210.383 237.900 C 204.473 232.039,200.505 228.400,200.025 228.400 C 199.322 228.400,163.155 264.267,162.277 265.834 C 162.089 266.171,162.307 267.613,162.803 269.305 C 163.269 270.897,163.920 273.550,164.249 275.200 C 164.578 276.850,165.028 278.830,165.248 279.600 C 166.586 284.272,165.049 298.964,162.529 305.600 C 149.787 339.155,109.645 352.000,80.675 331.793 C 76.372 328.791,67.200 319.235,67.200 317.753 C 67.200 317.604,66.602 316.564,65.870 315.441 C 57.836 303.109,55.801 280.982,61.563 268.600 C 61.768 268.160,62.424 266.720,63.021 265.400 C 65.886 259.066,69.256 254.046,74.112 248.880 C 79.188 243.480,91.016 235.600,94.047 235.600 C 94.373 235.600,94.839 235.401,95.082 235.158 C 95.540 234.700,98.308 234.001,103.800 232.956 C 108.181 232.123,122.118 232.584,123.400 233.604 C 123.620 233.780,124.861 234.054,126.158 234.215 L 128.516 234.507 145.858 217.013 C 155.396 207.391,163.200 199.389,163.200 199.230 C 163.200 198.936,155.155 190.784,114.540 149.922 C 102.143 137.450,92.000 127.098,92.000 126.918 C 92.000 126.739,91.318 125.874,90.485 124.996 C 86.292 120.580,80.519 111.155,78.173 104.894 C 73.033 91.177,71.185 81.427,70.385 63.800 C 69.504 44.394,69.468 40.061,70.179 38.976 L 70.841 37.965 72.521 39.248 C 73.444 39.953,81.040 47.277,89.400 55.522 M108.800 264.268 C 91.984 266.062,83.072 285.927,92.702 300.151 C 104.529 317.620,132.880 310.470,134.599 289.585 C 135.335 280.645,133.133 275.398,125.954 268.991 C 122.098 265.549,115.031 263.603,108.800 264.268 M284.800 264.405 C 276.854 265.514,269.608 271.857,266.757 280.200 C 265.721 283.230,265.393 292.156,266.276 293.278 C 266.502 293.565,266.963 294.632,267.302 295.649 C 271.922 309.539,293.219 314.779,303.940 304.664 C 321.110 288.464,308.126 261.151,284.800 264.405 M116.943 265.442 C 119.877 266.101,123.699 267.726,124.832 268.797 C 125.183 269.128,126.310 270.161,127.335 271.090 C 128.361 272.020,129.200 272.956,129.200 273.170 C 129.200 273.385,129.425 273.704,129.700 273.880 C 134.253 276.793,135.539 290.358,131.892 297.000 C 131.651 297.440,131.221 298.259,130.937 298.820 C 129.458 301.746,123.709 306.882,121.286 307.443 C 120.689 307.582,119.750 307.988,119.200 308.346 C 117.399 309.519,106.473 309.280,103.400 308.001 C 97.617 305.593,91.694 299.625,90.929 295.436 C 90.804 294.756,90.420 293.750,90.074 293.200 C 88.459 290.633,89.420 280.911,91.655 277.200 C 91.853 276.870,92.288 276.009,92.619 275.286 C 95.947 268.036,107.563 263.335,116.943 265.442 M295.937 265.786 C 299.684 267.156,301.096 268.038,303.966 270.800 C 309.537 276.162,310.609 278.856,310.572 287.400 C 310.546 293.193,310.461 293.950,309.672 295.385 C 309.192 296.256,308.800 297.201,308.800 297.485 C 308.800 297.768,308.642 298.000,308.449 298.000 C 308.255 298.000,307.884 298.513,307.625 299.141 C 306.946 300.780,302.481 305.347,300.600 306.326 C 295.840 308.805,294.963 309.000,288.583 309.000 L 282.565 309.000 279.183 307.289 C 275.807 305.582,271.610 302.111,270.264 299.913 C 264.552 290.583,264.792 282.360,271.034 273.533 C 276.086 266.388,287.701 262.775,295.937 265.786 M1.200 364.290 C 1.200 364.486,1.475 364.996,1.812 365.424 C 2.404 366.175,2.420 366.169,2.312 365.231 C 2.209 364.337,1.200 363.484,1.200 364.290 M3.024 368.230 C 3.451 368.576,3.575 368.745,3.300 368.606 C 2.501 368.201,2.723 368.960,3.556 369.480 C 4.415 370.016,4.297 368.489,3.435 367.906 C 2.596 367.339,2.255 367.607,3.024 368.230 M4.012 370.667 C 3.989 371.560,4.489 372.400,5.043 372.400 C 5.349 372.400,5.600 372.119,5.600 371.776 C 5.600 371.433,5.431 371.257,5.225 371.385 C 5.018 371.512,4.664 371.298,4.437 370.908 C 4.210 370.519,4.019 370.410,4.012 370.667 M11.030 381.942 C 11.454 382.350,11.867 382.509,11.949 382.296 C 12.102 381.895,11.282 381.217,10.630 381.206 C 10.427 381.203,10.607 381.534,11.030 381.942 M386.660 382.587 C 386.404 383.256,387.000 383.771,387.600 383.400 C 388.198 383.030,388.082 382.000,387.443 382.000 C 387.136 382.000,386.784 382.264,386.660 382.587 M380.100 389.700 C 379.724 390.726,379.727 390.869,380.112 390.375 C 380.380 390.032,380.915 389.632,381.300 389.488 C 382.212 389.146,382.204 388.400,381.288 388.400 C 380.848 388.400,380.393 388.898,380.100 389.700 M371.478 394.656 C 371.158 394.975,371.519 395.600,372.024 395.600 C 372.231 395.600,372.400 395.330,372.400 395.000 C 372.400 394.381,371.928 394.205,371.478 394.656 M368.092 396.475 C 368.339 397.217,369.200 397.340,369.200 396.633 C 369.200 396.285,368.915 396.000,368.567 396.000 C 368.218 396.000,368.005 396.214,368.092 396.475 M359.600 399.600 C 359.600 399.820,359.870 400.000,360.200 400.000 C 360.530 400.000,360.800 399.820,360.800 399.600 C 360.800 399.380,360.530 399.200,360.200 399.200 C 359.870 399.200,359.600 399.380,359.600 399.600 " stroke="none" fill="#5c595a" fill-rule="evenodd"></path><path id="path3" d="M70.464 38.896 C 69.689 39.671,70.219 67.170,71.149 74.400 C 72.931 88.262,74.493 94.859,78.299 104.600 C 81.020 111.563,87.214 121.797,90.404 124.600 C 90.905 125.040,91.616 125.889,91.985 126.487 C 92.353 127.084,108.377 143.421,127.592 162.790 C 146.807 182.158,162.751 198.323,163.023 198.712 C 163.462 199.338,161.533 201.417,146.059 216.997 C 126.479 236.712,128.380 235.287,123.549 233.879 C 118.282 232.344,103.552 232.145,100.843 233.572 C 100.489 233.758,99.168 234.123,97.907 234.382 C 96.646 234.642,95.510 235.022,95.383 235.227 C 95.257 235.432,94.861 235.600,94.504 235.600 C 93.405 235.600,86.365 239.211,83.200 241.399 C 79.313 244.085,75.759 247.363,71.488 252.200 C 67.339 256.900,61.707 267.004,60.970 271.070 C 60.818 271.912,60.449 273.082,60.151 273.671 C 59.853 274.261,59.497 276.331,59.361 278.271 C 59.224 280.212,58.862 282.571,58.556 283.514 C 57.841 285.719,57.841 290.685,58.558 292.886 C 58.864 293.829,59.236 296.035,59.382 297.789 C 59.529 299.543,59.813 301.175,60.013 301.416 C 60.213 301.657,60.585 302.825,60.840 304.011 C 62.732 312.834,72.479 326.071,81.592 332.194 C 92.191 339.315,107.208 342.797,118.633 340.783 C 131.654 338.487,140.386 334.220,149.112 325.888 C 156.271 319.053,163.458 306.204,164.248 298.831 C 164.380 297.604,164.738 295.829,165.044 294.886 C 165.802 292.550,165.800 282.450,165.040 279.773 C 164.733 278.688,164.362 276.810,164.217 275.600 C 164.072 274.390,163.418 271.800,162.765 269.844 C 161.624 266.425,161.605 266.255,162.280 265.444 C 164.635 262.616,199.486 228.000,199.978 228.000 C 200.630 228.000,215.396 242.362,234.247 261.333 L 238.951 266.066 238.440 267.333 C 238.159 268.030,237.760 269.320,237.553 270.200 C 237.347 271.080,236.932 272.431,236.631 273.202 C 236.330 273.974,235.958 275.864,235.804 277.402 C 235.649 278.941,235.270 280.971,234.961 281.914 C 234.302 283.927,234.204 290.886,234.818 292.034 C 235.049 292.465,235.406 294.297,235.612 296.106 C 237.632 313.818,252.686 331.855,270.870 338.350 C 284.727 343.299,304.035 341.453,315.400 334.094 C 316.940 333.096,319.100 331.689,320.200 330.966 C 322.132 329.696,330.129 321.714,331.834 319.355 C 334.239 316.028,338.549 307.785,339.169 305.328 C 339.381 304.488,339.814 302.990,340.132 302.000 C 341.596 297.435,341.970 295.485,342.200 291.200 C 342.458 286.394,341.979 279.477,341.175 276.400 C 340.387 273.385,338.691 267.837,338.364 267.200 C 338.194 266.870,337.470 265.340,336.754 263.800 C 336.039 262.260,335.154 260.550,334.789 260.000 C 334.423 259.450,333.366 257.830,332.440 256.400 C 326.220 246.791,308.351 234.000,301.149 234.000 C 300.731 234.000,300.077 233.835,299.695 233.633 C 297.290 232.365,282.143 232.329,279.600 233.586 C 278.422 234.169,272.902 234.897,272.308 234.548 C 270.026 233.207,237.119 199.110,237.444 198.422 C 237.640 198.005,253.029 182.305,271.642 163.532 C 303.140 131.763,308.454 126.267,311.919 121.873 C 316.713 115.794,321.378 106.972,323.909 99.200 C 325.332 94.832,325.941 92.491,327.603 85.000 C 327.798 84.120,328.167 81.870,328.423 80.000 C 328.679 78.130,329.070 76.060,329.293 75.400 C 330.061 73.126,330.212 39.474,329.458 38.848 C 328.797 38.299,304.347 62.021,272.754 93.863 C 266.458 100.209,260.608 106.046,259.754 106.836 C 258.899 107.626,257.210 109.344,256.000 110.654 C 254.790 111.963,251.815 114.917,249.390 117.217 C 246.964 119.518,244.444 121.959,243.790 122.641 C 235.733 131.046,200.819 165.601,200.383 165.603 C 200.062 165.604,187.888 153.679,173.328 139.103 C 158.769 124.526,137.213 103.060,125.427 91.400 C 113.642 79.740,97.384 63.628,89.299 55.596 C 73.026 39.428,71.386 37.974,70.464 38.896 M89.000 56.280 C 137.383 104.247,146.820 113.587,152.609 119.237 C 156.124 122.668,168.074 134.590,179.164 145.731 C 190.254 156.871,199.691 166.102,200.135 166.243 C 200.801 166.454,204.552 162.891,221.571 145.886 C 232.917 134.549,243.010 124.491,244.000 123.535 C 244.990 122.579,246.340 121.235,247.000 120.548 C 250.295 117.117,306.320 61.455,316.871 51.131 C 326.024 42.173,329.080 39.404,329.327 39.844 C 329.768 40.628,329.354 68.222,328.844 72.000 C 328.622 73.650,328.186 76.980,327.877 79.400 C 327.567 81.820,327.119 84.340,326.880 85.000 C 326.641 85.660,326.258 87.280,326.027 88.600 C 325.487 91.694,324.491 95.475,323.816 97.000 C 323.524 97.660,323.158 98.797,323.004 99.527 C 322.851 100.257,322.473 101.337,322.165 101.927 C 321.857 102.517,321.604 103.234,321.602 103.521 C 321.601 103.807,321.250 104.707,320.823 105.521 C 320.093 106.912,318.604 109.884,317.277 112.600 C 316.482 114.227,313.210 119.149,312.100 120.388 C 311.605 120.940,311.200 121.535,311.200 121.711 C 311.200 121.886,310.432 122.788,309.493 123.715 C 308.554 124.642,307.480 125.879,307.107 126.464 C 306.444 127.505,296.762 137.340,256.634 177.737 C 245.742 188.703,236.723 198.012,236.593 198.423 C 236.231 199.564,236.740 200.116,255.311 218.704 L 272.600 236.008 274.000 235.557 C 274.770 235.309,276.300 234.973,277.400 234.811 C 278.500 234.648,280.810 234.209,282.533 233.835 C 285.652 233.157,292.933 233.119,296.400 233.762 C 305.787 235.504,311.838 238.069,318.572 243.165 C 322.560 246.181,330.531 254.121,330.974 255.517 C 331.128 256.003,331.399 256.400,331.577 256.400 C 331.910 256.400,335.359 262.306,336.483 264.800 C 336.830 265.570,337.493 267.030,337.957 268.044 C 338.421 269.058,338.800 270.192,338.800 270.564 C 338.800 270.936,339.051 271.726,339.358 272.320 C 342.367 278.146,342.199 295.265,339.054 303.400 C 338.713 304.280,338.427 305.226,338.418 305.502 C 338.408 305.777,337.585 307.667,336.588 309.702 C 334.944 313.057,333.990 314.649,330.750 319.445 C 328.746 322.411,321.786 329.003,318.158 331.371 C 316.201 332.649,314.125 334.024,313.544 334.426 C 310.704 336.396,302.116 339.123,295.800 340.060 C 292.507 340.549,278.999 340.257,278.286 339.682 C 278.019 339.467,276.990 339.160,276.000 339.001 C 269.033 337.882,258.306 331.957,252.134 325.819 C 248.875 322.577,242.400 314.307,242.400 313.385 C 242.400 313.117,242.142 312.683,241.826 312.421 C 241.510 312.159,241.138 311.430,241.000 310.800 C 240.862 310.170,240.502 309.450,240.200 309.200 C 239.898 308.950,239.529 308.172,239.380 307.472 C 239.230 306.773,238.865 305.750,238.568 305.200 C 237.820 303.813,236.852 299.968,236.352 296.400 C 236.121 294.750,235.753 292.770,235.536 292.000 C 234.743 289.199,235.698 278.940,237.209 274.033 C 237.644 272.621,238.000 271.128,238.000 270.717 C 238.000 270.305,238.374 269.234,238.832 268.338 C 239.904 266.237,239.620 265.180,237.539 263.521 C 236.628 262.794,234.694 260.955,233.241 259.433 C 231.789 257.912,228.310 254.402,225.511 251.633 C 222.711 248.865,216.011 242.235,210.621 236.900 C 204.146 230.491,200.538 227.200,199.989 227.200 C 199.249 227.200,164.251 261.935,161.628 265.273 C 160.842 266.273,160.824 266.449,161.361 267.873 C 165.298 278.308,165.792 294.198,162.458 303.200 C 162.010 304.410,161.372 306.144,161.040 307.053 C 160.191 309.378,158.877 311.898,157.419 314.000 C 156.733 314.990,155.686 316.635,155.095 317.655 C 154.134 319.312,151.714 322.188,148.776 325.163 C 137.602 336.481,118.657 342.671,103.400 339.990 C 98.169 339.071,93.063 337.614,90.909 336.427 C 90.519 336.212,89.302 335.660,88.205 335.199 C 81.538 332.399,71.006 322.815,67.031 315.931 C 64.205 311.035,61.465 304.908,61.071 302.600 C 60.958 301.940,60.658 300.590,60.405 299.600 C 56.860 285.736,60.622 267.549,69.507 255.600 C 77.377 245.017,90.029 236.501,101.000 234.404 C 102.320 234.152,104.051 233.777,104.846 233.573 C 106.695 233.096,117.112 233.086,118.640 233.559 C 119.278 233.756,121.150 234.145,122.800 234.422 C 124.450 234.700,126.103 235.079,126.474 235.264 C 126.860 235.457,127.628 235.422,128.274 235.183 C 129.794 234.620,164.000 200.186,164.000 199.218 C 164.000 198.770,155.942 190.369,143.779 178.137 C 104.989 139.124,94.521 128.504,93.165 126.784 C 92.414 125.831,91.125 124.365,90.300 123.526 C 89.475 122.687,88.800 121.863,88.800 121.696 C 88.800 121.529,88.383 120.942,87.874 120.393 C 87.365 119.844,86.240 118.163,85.374 116.659 C 84.508 115.154,83.489 113.445,83.108 112.861 C 80.450 108.782,76.381 98.390,75.216 92.707 C 74.958 91.446,74.602 90.325,74.426 90.216 C 74.249 90.107,73.977 88.722,73.821 87.139 C 73.665 85.556,73.290 83.617,72.988 82.830 C 72.118 80.567,71.359 69.947,70.576 49.104 C 70.429 45.201,70.426 41.386,70.569 40.626 L 70.828 39.243 72.314 40.227 C 73.131 40.768,80.640 47.992,89.000 56.280 M107.800 263.607 C 93.853 265.606,85.146 279.004,88.517 293.279 C 90.305 300.853,99.262 310.000,104.890 310.000 C 105.447 310.000,106.549 310.270,107.338 310.600 C 108.925 311.263,113.398 311.385,115.600 310.825 C 123.449 308.830,126.286 307.135,130.334 302.020 C 138.446 291.769,136.704 274.786,126.897 268.513 C 126.294 268.127,125.620 267.611,125.400 267.367 C 122.955 264.652,113.942 262.726,107.800 263.607 M284.376 263.612 C 272.630 264.987,263.365 277.904,265.109 290.474 C 265.780 295.313,268.872 301.768,271.389 303.586 C 271.835 303.908,273.010 304.910,274.000 305.812 C 277.807 309.279,284.946 311.531,290.600 311.047 C 294.640 310.702,302.000 308.167,302.000 307.120 C 302.000 306.944,302.231 306.800,302.513 306.800 C 303.115 306.800,307.063 302.806,308.422 300.821 C 312.955 294.203,313.843 287.806,311.441 279.090 C 310.735 276.527,310.201 275.583,307.703 272.482 C 301.702 265.035,294.764 262.397,284.376 263.612 M119.481 265.174 C 136.981 270.763,140.315 296.022,124.924 306.409 C 115.352 312.870,99.747 310.694,93.793 302.069 C 90.304 297.015,89.889 296.135,89.016 291.951 C 85.320 274.232,101.984 259.584,119.481 265.174 M297.069 265.331 C 318.063 273.708,316.354 304.101,294.580 309.586 C 273.648 314.860,257.612 291.592,269.864 273.723 C 275.555 265.423,287.819 261.640,297.069 265.331 " stroke="none" fill="#7c7c7c" fill-rule="evenodd"></path><path id="path4" d="M69.766 46.800 C 69.766 50.870,69.825 52.535,69.898 50.500 C 69.971 48.465,69.971 45.135,69.898 43.100 C 69.825 41.065,69.766 42.730,69.766 46.800 M330.180 53.400 C 330.180 61.100,330.234 64.193,330.299 60.274 C 330.365 56.355,330.365 50.055,330.299 46.274 C 330.234 42.493,330.180 45.700,330.180 53.400 M308.393 58.300 L 304.200 62.600 308.500 58.407 C 310.865 56.101,312.800 54.166,312.800 54.107 C 312.800 53.818,312.287 54.306,308.393 58.300 M97.800 64.400 C 100.212 66.820,102.276 68.800,102.386 68.800 C 102.496 68.800,100.612 66.820,98.200 64.400 C 95.788 61.980,93.724 60.000,93.614 60.000 C 93.504 60.000,95.388 61.980,97.800 64.400 M294.597 71.700 L 285.400 81.000 294.700 71.803 C 303.342 63.258,304.180 62.400,303.897 62.400 C 303.840 62.400,299.655 66.585,294.597 71.700 M105.400 71.600 C 106.259 72.480,107.052 73.200,107.162 73.200 C 107.272 73.200,106.659 72.480,105.800 71.600 C 104.941 70.720,104.148 70.000,104.038 70.000 C 103.928 70.000,104.541 70.720,105.400 71.600 M109.200 74.925 C 109.200 74.994,109.785 75.579,110.500 76.225 L 111.800 77.400 110.625 76.100 C 109.530 74.888,109.200 74.616,109.200 74.925 M71.709 80.400 C 71.709 81.390,71.787 81.795,71.882 81.300 C 71.978 80.805,71.978 79.995,71.882 79.500 C 71.787 79.005,71.709 79.410,71.709 80.400 M137.600 103.800 C 142.106 108.310,145.883 112.000,145.993 112.000 C 146.103 112.000,142.506 108.310,138.000 103.800 C 133.494 99.290,129.717 95.600,129.607 95.600 C 129.497 95.600,133.094 99.290,137.600 103.800 M265.978 100.700 L 264.600 102.200 266.100 100.822 C 267.496 99.538,267.784 99.200,267.478 99.200 C 267.412 99.200,266.737 99.875,265.978 100.700 M254.975 111.700 L 253.800 113.000 255.100 111.825 C 255.815 111.179,256.400 110.594,256.400 110.525 C 256.400 110.216,256.070 110.488,254.975 111.700 M155.400 120.800 C 158.254 123.660,160.678 126.000,160.788 126.000 C 160.898 126.000,158.654 123.660,155.800 120.800 C 152.946 117.940,150.522 115.600,150.412 115.600 C 150.302 115.600,152.546 117.940,155.400 120.800 M309.381 124.900 L 307.800 126.600 309.500 125.019 C 311.081 123.548,311.384 123.200,311.081 123.200 C 311.016 123.200,310.251 123.965,309.381 124.900 M110.000 145.400 C 114.726 150.130,118.683 154.000,118.793 154.000 C 118.903 154.000,115.126 150.130,110.400 145.400 C 105.674 140.670,101.717 136.800,101.607 136.800 C 101.497 136.800,105.274 140.670,110.000 145.400 M290.400 144.600 C 286.114 148.890,282.698 152.400,282.808 152.400 C 282.918 152.400,286.514 148.890,290.800 144.600 C 295.086 140.310,298.502 136.800,298.392 136.800 C 298.282 136.800,294.686 140.310,290.400 144.600 M189.400 155.200 C 194.897 160.700,199.484 165.200,199.594 165.200 C 199.704 165.200,195.297 160.700,189.800 155.200 C 184.303 149.700,179.716 145.200,179.606 145.200 C 179.496 145.200,183.903 149.700,189.400 155.200 M203.389 162.900 L 200.600 165.800 203.500 163.011 C 205.095 161.477,206.400 160.172,206.400 160.111 C 206.400 159.817,205.980 160.206,203.389 162.900 M249.586 185.900 L 247.400 188.200 249.700 186.014 C 251.837 183.982,252.183 183.600,251.886 183.600 C 251.824 183.600,250.789 184.635,249.586 185.900 M244.189 191.300 L 241.400 194.200 244.300 191.411 C 245.895 189.877,247.200 188.572,247.200 188.511 C 247.200 188.217,246.780 188.606,244.189 191.300 M157.000 192.800 C 158.528 194.340,159.869 195.600,159.979 195.600 C 160.089 195.600,158.928 194.340,157.400 192.800 C 155.872 191.260,154.531 190.000,154.421 190.000 C 154.311 190.000,155.472 191.260,157.000 192.800 M268.400 231.000 C 270.260 232.870,271.872 234.400,271.982 234.400 C 272.092 234.400,270.660 232.870,268.800 231.000 C 266.940 229.130,265.328 227.600,265.218 227.600 C 265.108 227.600,266.540 229.130,268.400 231.000 M106.700 232.689 C 107.415 232.778,108.585 232.778,109.300 232.689 C 110.015 232.601,109.430 232.528,108.000 232.528 C 106.570 232.528,105.985 232.601,106.700 232.689 M285.100 232.682 C 285.595 232.778,286.405 232.778,286.900 232.682 C 287.395 232.587,286.990 232.509,286.000 232.509 C 285.010 232.509,284.605 232.587,285.100 232.682 M183.796 243.700 L 177.000 250.600 183.900 243.804 C 187.695 240.067,190.800 236.962,190.800 236.904 C 190.800 236.619,190.109 237.290,183.796 243.700 M211.800 239.600 C 213.328 241.140,214.669 242.400,214.779 242.400 C 214.889 242.400,213.728 241.140,212.200 239.600 C 210.672 238.060,209.331 236.800,209.221 236.800 C 209.111 236.800,210.272 238.060,211.800 239.600 M77.775 245.700 L 76.600 247.000 77.900 245.825 C 79.112 244.730,79.384 244.400,79.075 244.400 C 79.006 244.400,78.421 244.985,77.775 245.700 M218.000 245.800 C 218.746 246.570,219.447 247.200,219.557 247.200 C 219.667 247.200,219.146 246.570,218.400 245.800 C 217.654 245.030,216.953 244.400,216.843 244.400 C 216.733 244.400,217.254 245.030,218.000 245.800 M326.800 249.800 C 328.881 251.890,330.674 253.600,330.784 253.600 C 330.894 253.600,329.281 251.890,327.200 249.800 C 325.119 247.710,323.326 246.000,323.216 246.000 C 323.106 246.000,324.719 247.710,326.800 249.800 M223.400 250.400 C 224.259 251.280,225.052 252.000,225.162 252.000 C 225.272 252.000,224.659 251.280,223.800 250.400 C 222.941 249.520,222.148 248.800,222.038 248.800 C 221.928 248.800,222.541 249.520,223.400 250.400 M71.200 252.200 C 70.228 253.190,69.523 254.000,69.633 254.000 C 69.743 254.000,70.628 253.190,71.600 252.200 C 72.572 251.210,73.277 250.400,73.167 250.400 C 73.057 250.400,72.172 251.210,71.200 252.200 M171.800 255.600 C 169.167 258.240,167.103 260.400,167.213 260.400 C 167.323 260.400,169.567 258.240,172.200 255.600 C 174.833 252.960,176.897 250.800,176.787 250.800 C 176.677 250.800,174.433 252.960,171.800 255.600 M290.305 264.283 C 290.802 264.379,291.522 264.375,291.905 264.275 C 292.287 264.175,291.880 264.096,291.000 264.101 C 290.120 264.105,289.807 264.187,290.305 264.283 M95.200 270.600 C 94.228 271.590,93.523 272.400,93.633 272.400 C 93.743 272.400,94.628 271.590,95.600 270.600 C 96.572 269.610,97.277 268.800,97.167 268.800 C 97.057 268.800,96.172 269.610,95.200 270.600 M304.400 270.200 C 305.146 270.970,305.847 271.600,305.957 271.600 C 306.067 271.600,305.546 270.970,304.800 270.200 C 304.054 269.430,303.353 268.800,303.243 268.800 C 303.133 268.800,303.654 269.430,304.400 270.200 M235.293 279.600 C 235.293 280.370,235.375 280.685,235.476 280.300 C 235.576 279.915,235.576 279.285,235.476 278.900 C 235.375 278.515,235.293 278.830,235.293 279.600 M58.914 280.600 C 58.917 281.700,58.995 282.103,59.087 281.495 C 59.179 280.886,59.177 279.986,59.082 279.495 C 58.987 279.003,58.911 279.500,58.914 280.600 M58.893 295.200 C 58.893 295.970,58.975 296.285,59.076 295.900 C 59.176 295.515,59.176 294.885,59.076 294.500 C 58.975 294.115,58.893 294.430,58.893 295.200 M235.293 295.200 C 235.293 295.970,235.375 296.285,235.476 295.900 C 235.576 295.515,235.576 294.885,235.476 294.500 C 235.375 294.115,235.293 294.430,235.293 295.200 M126.981 304.500 L 125.400 306.200 127.100 304.619 C 128.681 303.148,128.984 302.800,128.681 302.800 C 128.616 302.800,127.851 303.565,126.981 304.500 M273.800 304.800 C 274.659 305.680,275.452 306.400,275.562 306.400 C 275.672 306.400,275.059 305.680,274.200 304.800 C 273.341 303.920,272.548 303.200,272.438 303.200 C 272.328 303.200,272.941 303.920,273.800 304.800 M110.112 310.295 C 111.164 310.377,112.784 310.376,113.712 310.292 C 114.640 310.208,113.780 310.141,111.800 310.142 C 109.820 310.143,109.060 310.212,110.112 310.295 M287.511 310.293 C 288.451 310.378,289.891 310.377,290.711 310.291 C 291.530 310.205,290.760 310.136,289.000 310.137 C 287.240 310.139,286.570 310.209,287.511 310.293 M152.185 322.500 L 150.200 324.600 152.300 322.615 C 153.455 321.523,154.400 320.578,154.400 320.515 C 154.400 320.217,154.029 320.549,152.185 322.500 M251.193 326.100 C 253.499 328.465,255.434 330.400,255.493 330.400 C 255.782 330.400,255.294 329.887,251.300 325.993 L 247.000 321.800 251.193 326.100 M324.989 326.900 L 322.200 329.800 325.100 327.011 C 327.794 324.420,328.183 324.000,327.889 324.000 C 327.828 324.000,326.523 325.305,324.989 326.900 M75.400 327.600 C 76.483 328.700,77.460 329.600,77.570 329.600 C 77.680 329.600,76.883 328.700,75.800 327.600 C 74.717 326.500,73.740 325.600,73.630 325.600 C 73.520 325.600,74.317 326.500,75.400 327.600 M146.181 328.500 L 144.600 330.200 146.300 328.619 C 147.881 327.148,148.184 326.800,147.881 326.800 C 147.816 326.800,147.051 327.565,146.181 328.500 M119.700 340.676 C 120.085 340.776,120.715 340.776,121.100 340.676 C 121.485 340.575,121.170 340.493,120.400 340.493 C 119.630 340.493,119.315 340.575,119.700 340.676 M296.500 340.676 C 296.885 340.776,297.515 340.776,297.900 340.676 C 298.285 340.575,297.970 340.493,297.200 340.493 C 296.430 340.493,296.115 340.575,296.500 340.676 M109.100 341.496 C 110.475 341.574,112.725 341.574,114.100 341.496 C 115.475 341.418,114.350 341.354,111.600 341.354 C 108.850 341.354,107.725 341.418,109.100 341.496 M285.900 341.496 C 287.275 341.574,289.525 341.574,290.900 341.496 C 292.275 341.418,291.150 341.354,288.400 341.354 C 285.650 341.354,284.525 341.418,285.900 341.496 " stroke="none" fill="#747474" fill-rule="evenodd"></path></g></svg>